<svg width="900" height="620" viewBox="0 0 900 620" fill="none" xmlns="http://www.w3.org/2000/svg">
  <rect width="900" height="620" rx="32" fill="#0F172A"/>
  <rect x="56" y="62" width="788" height="496" rx="34" fill="#101B36"/>
  <rect x="56" y="62" width="788" height="496" rx="34" stroke="#1E293B" stroke-width="2"/>
  <rect x="92" y="100" width="164" height="420" rx="26" fill="#16233F"/>
  <rect x="286" y="100" width="520" height="82" rx="24" fill="#16233F"/>
  <rect x="286" y="208" width="232" height="168" rx="26" fill="#3B82F6"/>
  <rect x="540" y="208" width="232" height="168" rx="26" fill="#1E2E68"/>
  <rect x="286" y="382" width="520" height="138" rx="26" fill="#12213C"/>
  <rect x="118" y="134" width="112" height="42" rx="21" fill="#1D4ED8"/>
  <rect x="118" y="200" width="112" height="42" rx="21" fill="#22C55E"/>
  <rect x="118" y="266" width="112" height="42" rx="21" fill="#1E293B"/>
  <rect x="118" y="340" width="112" height="12" rx="6" fill="#334155"/>
  <rect x="118" y="366" width="90" height="12" rx="6" fill="#334155"/>
  <rect x="118" y="392" width="102" height="12" rx="6" fill="#334155"/>
  <rect x="314" y="122" width="182" height="38" rx="19" fill="#1D4ED8"/>
  <text x="332" y="147" fill="white" font-family="Inter, sans-serif" font-size="16" font-weight="700">Task workspace</text>
  <text x="520" y="151" fill="#F8FAFC" font-family="Inter, sans-serif" font-size="30" font-weight="800">AI Task Manager</text>
  <text x="320" y="252" fill="white" font-family="Inter, sans-serif" font-size="18" font-weight="700">Task board</text>
  <text x="320" y="300" fill="white" fill-opacity="0.96" font-family="Inter, sans-serif" font-size="26" font-weight="800">Fast planning</text>
  <rect x="320" y="330" width="150" height="12" rx="6" fill="white" fill-opacity="0.28"/>
  <rect x="320" y="352" width="124" height="12" rx="6" fill="white" fill-opacity="0.18"/>
  <text x="574" y="252" fill="#86EFAC" font-family="Inter, sans-serif" font-size="18" font-weight="700">AI suggestions</text>
  <text x="574" y="300" fill="white" font-family="Inter, sans-serif" font-size="26" font-weight="800">Next actions</text>
  <rect x="574" y="330" width="158" height="12" rx="6" fill="white" fill-opacity="0.24"/>
  <rect x="574" y="352" width="134" height="12" rx="6" fill="white" fill-opacity="0.16"/>
  <rect x="314" y="420" width="144" height="34" rx="17" fill="#1D4ED8"/>
  <rect x="476" y="420" width="156" height="34" rx="17" fill="#14532D"/>
  <rect x="650" y="420" width="126" height="34" rx="17" fill="#1E293B"/>
  <text x="386" y="442" fill="white" font-family="Inter, sans-serif" font-size="16" font-weight="700" text-anchor="middle">Dashboard UI</text>
  <text x="554" y="442" fill="white" font-family="Inter, sans-serif" font-size="16" font-weight="700" text-anchor="middle">Suggestions</text>
  <text x="713" y="442" fill="white" font-family="Inter, sans-serif" font-size="16" font-weight="700" text-anchor="middle">MongoDB</text>
</svg>
