<svg width="900" height="620" viewBox="0 0 900 620" fill="none" xmlns="http://www.w3.org/2000/svg">
  <defs>
    <linearGradient id="med-bg" x1="0" y1="0" x2="1" y2="1">
      <stop offset="0%" stop-color="#6D28D9"/>
      <stop offset="100%" stop-color="#4F46E5"/>
    </linearGradient>
    <linearGradient id="med-hero" x1="0" y1="0" x2="1" y2="1">
      <stop offset="0%" stop-color="#7C3AED"/>
      <stop offset="100%" stop-color="#4F46E5"/>
    </linearGradient>
  </defs>
  <rect width="900" height="620" rx="32" fill="#0F172A"/>
  <rect x="40" y="40" width="820" height="540" rx="34" fill="url(#med-bg)"/>
  <rect x="118" y="60" width="664" height="72" rx="26" fill="#FFFFFF"/>
  <text x="156" y="104" fill="#111827" font-family="Inter, sans-serif" font-size="30" font-weight="800">MEDAPPT</text>
  <text x="456" y="103" fill="#111827" font-family="Inter, sans-serif" font-size="18" font-weight="600" text-anchor="middle">Home</text>
  <text x="522" y="103" fill="#111827" font-family="Inter, sans-serif" font-size="18" font-weight="600" text-anchor="middle">About</text>
  <text x="600" y="103" fill="#111827" font-family="Inter, sans-serif" font-size="18" font-weight="600" text-anchor="middle">Services</text>
  <text x="678" y="103" fill="#111827" font-family="Inter, sans-serif" font-size="18" font-weight="600" text-anchor="middle">Doctors</text>
  <rect x="692" y="78" width="74" height="36" rx="16" fill="#F8FAFC" stroke="#4F46E5" stroke-width="2"/>
  <text x="729" y="101" fill="#111827" font-family="Inter, sans-serif" font-size="16" font-weight="700" text-anchor="middle">Login</text>

  <rect x="118" y="152" width="664" height="250" rx="28" fill="url(#med-hero)"/>
  <text x="450" y="245" fill="#FFFFFF" font-family="Inter, sans-serif" font-size="34" font-weight="800" text-anchor="middle">Book Your Medical</text>
  <text x="450" y="300" fill="#FFFFFF" font-family="Inter, sans-serif" font-size="34" font-weight="800" text-anchor="middle">Appointments Online</text>
  <text x="450" y="344" fill="#E9D5FF" font-family="Inter, sans-serif" font-size="19" font-weight="500" text-anchor="middle">Find and schedule appointments with doctors and healthcare providers</text>
  <rect x="330" y="374" width="124" height="46" rx="18" fill="#312E81"/>
  <text x="392" y="404" fill="white" font-family="Inter, sans-serif" font-size="20" font-weight="700" text-anchor="middle">Get Started</text>
  <text x="510" y="403" fill="white" font-family="Inter, sans-serif" font-size="20" font-weight="700">Learn More →</text>

  <rect x="118" y="438" width="664" height="104" rx="30" fill="#FFFFFF"/>
  <text x="156" y="480" fill="#4F46E5" font-family="Inter, sans-serif" font-size="18" font-weight="700">DETAILS</text>
  <text x="156" y="522" fill="#111827" font-family="Inter, sans-serif" font-size="30" font-weight="800">Effortlessly manage your health</text>
  <circle cx="688" cy="492" r="54" fill="#F8FAFC"/>
  <rect x="642" y="522" width="92" height="8" rx="4" fill="#E2E8F0"/>
</svg>
