<svg width="900" height="620" viewBox="0 0 900 620" fill="none" xmlns="http://www.w3.org/2000/svg">
  <defs>
    <linearGradient id="tax-bg" x1="0" y1="0" x2="1" y2="1">
      <stop offset="0%" stop-color="#6D83F2"/>
      <stop offset="100%" stop-color="#8B5CF6"/>
    </linearGradient>
    <linearGradient id="tax-btn" x1="0" y1="0" x2="1" y2="1">
      <stop offset="0%" stop-color="#6D83F2"/>
      <stop offset="100%" stop-color="#8B5CF6"/>
    </linearGradient>
  </defs>
  <rect width="900" height="620" rx="32" fill="#0F172A"/>
  <rect x="40" y="40" width="820" height="540" rx="34" fill="url(#tax-bg)"/>
  <rect x="152" y="58" width="596" height="504" rx="28" fill="#F7F7FB"/>
  <circle cx="450" cy="122" r="44" fill="#6D5CE8"/>
  <rect x="430" y="98" width="40" height="48" rx="8" fill="white" fill-opacity="0.95"/>
  <path d="M440 112H460M440 122H460M440 132H448M452 132H460" stroke="#6D5CE8" stroke-width="3" stroke-linecap="round"/>
  <text x="450" y="200" fill="#334155" font-family="Inter, sans-serif" font-size="32" font-weight="800" text-anchor="middle">Income Tax Calculator</text>
  <text x="450" y="232" fill="#64748B" font-family="Inter, sans-serif" font-size="20" font-weight="500" text-anchor="middle">Calculate annual tax with instant regime comparison</text>

  <rect x="216" y="270" width="468" height="160" rx="22" fill="#FFFFFF" stroke="#E2E8F0" stroke-width="2"/>
  <text x="246" y="314" fill="#475569" font-family="Inter, sans-serif" font-size="22" font-weight="700">Annual Income</text>
  <rect x="246" y="332" width="408" height="52" rx="14" fill="#F8FAFC" stroke="#CBD5E1" stroke-width="2"/>
  <text x="266" y="365" fill="#64748B" font-family="Inter, sans-serif" font-size="19" font-weight="500">₹ Enter your annual income</text>
  <text x="246" y="420" fill="#0F172A" font-family="Inter, sans-serif" font-size="18" font-weight="600">Tax Regime</text>
  <rect x="246" y="434" width="118" height="40" rx="10" fill="#6D83F2"/>
  <rect x="382" y="434" width="122" height="40" rx="10" fill="#E2E8F0"/>
  <text x="305" y="460" fill="white" font-family="Inter, sans-serif" font-size="18" font-weight="700" text-anchor="middle">Old Regime</text>
  <text x="443" y="460" fill="#0F172A" font-family="Inter, sans-serif" font-size="18" font-weight="700" text-anchor="middle">New Regime</text>

  <rect x="216" y="490" width="468" height="50" rx="14" fill="url(#tax-btn)"/>
  <text x="450" y="522" fill="white" font-family="Inter, sans-serif" font-size="22" font-weight="700" text-anchor="middle">Calculate Tax</text>

  <rect x="714" y="160" width="96" height="36" rx="12" fill="#FB7185"/>
  <text x="762" y="183" fill="white" font-family="Inter, sans-serif" font-size="16" font-weight="700" text-anchor="middle">Advanced</text>

  <rect x="176" y="590" width="0" height="0" fill="none"/>
</svg>
