<svg width="1200" height="800" viewBox="0 0 1200 800" fill="none" xmlns="http://www.w3.org/2000/svg">
  <rect width="1200" height="800" fill="#F8FAFC"/>
  <rect x="40" y="40" width="1120" height="720" fill="#FFFFFF"/>
  <path d="M80 40H280V760H80L160 400L80 40Z" fill="#E2E8F0"/>
  <path d="M92 40H210V760H92L154 400L92 40Z" fill="#CBD5E1"/>
  <path d="M110 40H248V256H110V40Z" fill="#475569"/>
  <circle cx="180" cy="140" r="84" fill="#FFFFFF" stroke="#94A3B8" stroke-width="8"/>
  <circle cx="180" cy="140" r="66" fill="none" stroke="#64748B" stroke-width="4" stroke-dasharray="4 8"/>
  <text x="118" y="154" fill="#1E293B" font-family="Inter, Arial, sans-serif" font-size="38" font-weight="800">coursera</text>
  <rect x="110" y="232" width="138" height="34" fill="#475569"/>
  <text x="140" y="255" fill="#FFFFFF" font-family="Inter, Arial, sans-serif" font-size="18" font-weight="700">4 Courses</text>
  <rect x="332" y="62" width="118" height="118" fill="#FFFFFF" stroke="#CBD5E1" stroke-width="4"/>
  <text x="354" y="146" fill="#6B4F1D" font-family="Inter, Arial, sans-serif" font-size="70" font-weight="800">CU</text>
  <text x="332" y="252" fill="#6B7280" font-family="Inter, Arial, sans-serif" font-size="18">Nov 27, 2024</text>
  <text x="332" y="326" fill="#111827" font-family="Inter, Arial, sans-serif" font-size="52" font-weight="800">Harsh Raj</text>
  <text x="332" y="376" fill="#6B7280" font-family="Inter, Arial, sans-serif" font-size="22">has successfully completed the online Specialization</text>
  <text x="332" y="456" fill="#111827" font-family="Inter, Arial, sans-serif" font-size="54" font-weight="800">Computer</text>
  <text x="332" y="526" fill="#111827" font-family="Inter, Arial, sans-serif" font-size="54" font-weight="800">Communications</text>
  <text x="332" y="590" fill="#475569" font-family="Inter, Arial, sans-serif" font-size="18">Fundamentals of network communication, TCP/IP, packet switching,</text>
  <text x="332" y="618" fill="#475569" font-family="Inter, Arial, sans-serif" font-size="18">protocols, and applied networking concepts.</text>
  <path d="M890 144C930 118 970 166 1030 136" stroke="#111827" stroke-width="3" stroke-linecap="round"/>
  <text x="884" y="176" fill="#334155" font-family="Inter, Arial, sans-serif" font-size="20">Xiaobo Zhou</text>
  <text x="884" y="210" fill="#475569" font-family="Inter, Arial, sans-serif" font-size="18">Professor, Interim Dean</text>
  <text x="884" y="668" fill="#4F46E5" font-family="Inter, Arial, sans-serif" font-size="20">coursera.org/verify/...</text>
</svg>
